<?xml version="1.0" encoding="UTF-8" standalone="no"?>
<!DOCTYPE svg PUBLIC "-//W3C//DTD SVG 1.1//EN" "http://www.w3.org/Graphics/SVG/1.1/DTD/svg11.dtd">
<svg version="1.1" xmlns="http://www.w3.org/2000/svg" xmlns:xlink="http://www.w3.org/1999/xlink" preserveAspectRatio="xMidYMid meet" viewBox="0 0 30 30" width="30" height="30"><defs><path d="M27.32 1.12C28.28 1.12 29.06 1.91 29.06 2.87C29.06 8.07 29.06 21.93 29.06 27.13C29.06 28.09 28.28 28.88 27.32 28.88C22.12 28.88 8.26 28.88 3.06 28.88C2.1 28.88 1.31 28.09 1.31 27.13C1.31 21.93 1.31 8.07 1.31 2.87C1.31 1.91 2.1 1.12 3.06 1.12C8.26 1.12 22.12 1.12 27.32 1.12Z" id="e2iiCODYa7"></path><path d="M15.7 16.81C15.7 23.42 15.7 27.1 15.7 27.83C15.7 28.05 15.87 28.23 16.09 28.23C16.54 28.23 20.17 28.23 20.63 28.23C20.85 28.23 21.02 28.05 21.02 27.83C21.02 27.1 21.02 23.45 21.02 16.87C22.87 16.87 23.89 16.87 24.1 16.87C24.3 16.87 24.47 16.71 24.49 16.52C24.54 16.11 24.91 12.87 24.96 12.46C24.97 12.35 24.94 12.24 24.86 12.15C24.79 12.07 24.68 12.02 24.57 12.02C24.33 12.02 23.15 12.02 21.02 12.02C21.02 10.49 21.02 9.65 21.02 9.48C21.02 8.71 21.44 8.32 22.25 8.32C22.37 8.32 24.57 8.32 24.57 8.32C24.78 8.32 24.96 8.15 24.96 7.93C24.96 7.56 24.96 4.58 24.96 4.2C24.96 3.99 24.78 3.81 24.57 3.81C24.25 3.81 21.69 3.81 21.37 3.81C21.35 3.81 21.3 3.81 21.23 3.81C20.67 3.81 18.75 3.92 17.22 5.32C15.54 6.87 15.77 8.72 15.83 9.05C15.83 9.24 15.83 10.24 15.83 12.02C14.14 12.02 13.21 12.02 13.02 12.02C12.8 12.02 12.63 12.2 12.63 12.41C12.63 12.81 12.63 16.02 12.63 16.42C12.63 16.64 12.8 16.81 13.02 16.81C13.38 16.81 14.27 16.81 15.7 16.81Z" id="bmhEE9yO3"></path></defs><g><g><g><use xlink:href="#e2iiCODYa7" opacity="1" fill="#e9e9e9" fill-opacity="0"></use><g><use xlink:href="#e2iiCODYa7" opacity="1" fill-opacity="0" stroke="#e9e9e9" stroke-width="2" stroke-opacity="1"></use></g></g><g><use xlink:href="#bmhEE9yO3" opacity="1" fill="#e9e9e9" fill-opacity="1"></use><g><use xlink:href="#bmhEE9yO3" opacity="1" fill-opacity="0" stroke="#e9e9e9" stroke-width="1" stroke-opacity="0"></use></g></g></g></g></svg>