<?xml version="1.0" encoding="UTF-8" standalone="no"?>
<!DOCTYPE svg PUBLIC "-//W3C//DTD SVG 1.1//EN" "http://www.w3.org/Graphics/SVG/1.1/DTD/svg11.dtd">
<svg version="1.1" xmlns="http://www.w3.org/2000/svg" xmlns:xlink="http://www.w3.org/1999/xlink" preserveAspectRatio="xMidYMid meet" viewBox="0 0 25 25" width="30" height="30"><defs><path d="M22.71 0.81C23.53 0.81 24.19 1.47 24.19 2.29C24.19 6.67 24.19 18.22 24.19 22.57C24.19 23.46 23.46 24.19 22.57 24.19C18.22 24.19 6.91 24.19 2.58 24.19C1.61 24.19 0.81 23.39 0.81 22.42C0.81 18.09 0.81 7.09 0.81 2.82C0.81 1.71 1.71 0.81 2.82 0.81C7.09 0.81 18.33 0.81 22.71 0.81Z" id="b5ZpdkI2X"></path><path d="M18.91 4.32L18.91 4.4L18.92 4.49L18.93 4.58L18.94 4.68L18.95 4.78L18.96 4.9L18.97 5.01L18.98 5.13L18.99 5.26L18.99 5.39L19 5.53L19.01 5.66L19.01 5.8L19.02 5.95L19.02 6.09L19.03 6.24L19.03 6.39L19.03 6.53L19.03 6.68L19.03 6.83L19.03 6.98L19.02 7.13L19.02 7.27L19.01 7.42L19.14 7.55L19.27 7.69L19.39 7.83L19.51 7.97L19.62 8.12L19.72 8.27L19.82 8.42L19.91 8.57L20 8.72L20.08 8.88L20.16 9.04L20.23 9.2L20.3 9.37L20.35 9.54L20.41 9.7L20.45 9.88L20.49 10.05L20.52 10.22L20.55 10.4L20.57 10.58L20.58 10.76L20.58 10.95L20.58 11.13L20.57 11.32L20.55 11.65L20.51 11.97L20.45 12.28L20.38 12.58L20.28 12.88L20.18 13.17L20.05 13.44L19.9 13.71L19.74 13.97L19.56 14.22L19.37 14.45L19.15 14.67L18.92 14.89L18.66 15.08L18.39 15.27L18.1 15.44L17.79 15.6L17.47 15.74L17.12 15.87L16.76 15.98L16.37 16.08L15.97 16.16L15.54 16.23L15.1 16.27L15.21 16.35L15.31 16.43L15.4 16.52L15.49 16.6L15.57 16.69L15.64 16.78L15.7 16.87L15.76 16.97L15.81 17.06L15.85 17.15L15.89 17.25L15.92 17.34L15.95 17.43L15.98 17.52L16 17.6L16.02 17.69L16.03 17.77L16.04 17.78L16.1 18.56L16.1 18.62L16.1 18.72L16.11 18.82L16.11 18.92L16.12 19.03L16.13 19.15L16.13 19.27L16.14 19.39L16.15 19.51L16.16 19.64L16.16 19.76L16.17 19.89L16.18 20.02L16.19 20.15L16.2 20.27L16.18 20.27L16.41 23.34L15.42 23.61L14.1 23.83L12.73 23.9L11.36 23.83L10.06 23.62L10.06 20.25L10.05 20.25L10.05 20.18L10.06 20.06L10.06 19.94L10.06 19.82L10.06 19.7L10.06 19.6L10.06 19.49L10.07 19.39L10.07 19.3L10.07 19.21L10.07 19.13L10.07 19.06L10.07 19L10.07 18.94L10.07 18.9L10.07 18.86L10.07 18.84L10.06 18.84L10.02 18.85L9.96 18.86L9.88 18.88L9.78 18.89L9.67 18.91L9.54 18.93L9.4 18.95L9.25 18.96L9.09 18.97L8.92 18.97L8.74 18.96L8.55 18.95L8.37 18.93L8.18 18.89L7.99 18.84L7.8 18.78L7.62 18.7L7.44 18.61L7.26 18.5L7.1 18.37L6.94 18.21L6.79 18.04L6.66 17.84L6.64 17.81L6.61 17.76L6.59 17.71L6.57 17.65L6.54 17.59L6.51 17.53L6.48 17.46L6.45 17.38L6.41 17.31L6.38 17.23L6.34 17.14L6.29 17.06L6.25 16.97L6.2 16.89L6.15 16.8L6.09 16.71L6.04 16.63L5.97 16.54L5.91 16.46L5.84 16.38L5.77 16.3L5.69 16.22L5.61 16.15L5.52 16.08L5.51 16.08L5.5 16.07L5.49 16.06L5.47 16.05L5.45 16.04L5.42 16.03L5.39 16.01L5.36 15.99L5.33 15.97L5.3 15.95L5.26 15.93L5.23 15.9L5.19 15.88L5.16 15.85L5.12 15.82L5.09 15.79L5.06 15.76L5.03 15.73L5 15.7L4.98 15.67L4.96 15.64L4.94 15.61L4.93 15.58L4.92 15.54L4.92 15.54L4.92 15.53L4.92 15.53L4.92 15.52L4.92 15.52L4.92 15.51L4.93 15.5L4.93 15.5L4.93 15.49L4.93 15.48L4.94 15.48L4.94 15.47L4.95 15.47L4.95 15.46L4.95 15.45L4.96 15.45L4.96 15.44L4.97 15.44L4.98 15.43L4.98 15.43L4.99 15.42L4.99 15.42L5 15.42L5.01 15.41L5.02 15.41L5.04 15.4L5.06 15.39L5.1 15.39L5.14 15.38L5.19 15.37L5.24 15.36L5.3 15.35L5.37 15.35L5.44 15.35L5.52 15.36L5.61 15.37L5.69 15.39L5.79 15.42L5.88 15.45L5.98 15.49L6.09 15.54L6.19 15.61L6.31 15.68L6.42 15.76L6.53 15.86L6.65 15.97L6.77 16.1L6.89 16.24L6.93 16.3L6.97 16.36L7.02 16.44L7.07 16.52L7.13 16.61L7.19 16.7L7.27 16.79L7.35 16.88L7.44 16.98L7.53 17.07L7.64 17.16L7.76 17.24L7.88 17.31L8.02 17.38L8.17 17.44L8.33 17.48L8.51 17.51L8.7 17.53L8.9 17.53L9.11 17.51L9.34 17.47L9.59 17.41L9.85 17.33L10.13 17.23L10.14 17.19L10.15 17.16L10.16 17.12L10.17 17.08L10.18 17.04L10.2 17L10.21 16.96L10.23 16.91L10.25 16.87L10.28 16.82L10.31 16.77L10.34 16.73L10.37 16.68L10.41 16.64L10.45 16.59L10.5 16.55L10.55 16.51L10.6 16.47L10.66 16.43L10.73 16.4L10.8 16.37L10.87 16.34L10.96 16.32L11.04 16.3L10.62 16.24L10.22 16.17L9.82 16.09L9.44 15.99L9.08 15.89L8.73 15.76L8.39 15.63L8.07 15.48L7.76 15.32L7.47 15.15L7.19 14.96L6.92 14.76L6.68 14.54L6.44 14.31L6.22 14.07L6.02 13.81L5.83 13.54L5.66 13.26L5.51 12.96L5.37 12.65L5.24 12.32L5.14 11.98L5.05 11.62L4.97 11.25L4.94 11L4.92 10.76L4.92 10.53L4.93 10.31L4.95 10.1L4.98 9.9L5.03 9.7L5.09 9.52L5.15 9.34L5.23 9.17L5.31 9.01L5.4 8.86L5.5 8.71L5.6 8.57L5.7 8.44L5.81 8.31L5.93 8.18L6.04 8.06L6.16 7.94L6.28 7.83L6.39 7.72L6.51 7.62L6.62 7.51L6.73 7.41L6.71 7.39L6.69 7.34L6.67 7.29L6.65 7.23L6.62 7.15L6.6 7.07L6.57 6.97L6.55 6.87L6.53 6.76L6.51 6.63L6.5 6.5L6.48 6.37L6.47 6.22L6.47 6.07L6.47 5.91L6.48 5.75L6.5 5.58L6.52 5.41L6.55 5.24L6.59 5.06L6.64 4.88L6.69 4.69L6.76 4.51L6.84 4.32L6.94 4.3L7.04 4.3L7.14 4.3L7.26 4.3L7.37 4.31L7.5 4.33L7.62 4.35L7.75 4.38L7.89 4.42L8.02 4.46L8.16 4.5L8.31 4.55L8.45 4.61L8.6 4.67L8.75 4.74L8.9 4.81L9.05 4.88L9.2 4.96L9.35 5.05L9.51 5.13L9.66 5.23L9.81 5.32L9.96 5.42L10.11 5.52L10.32 5.45L10.55 5.39L10.78 5.34L11.02 5.29L11.27 5.25L11.52 5.21L11.78 5.19L12.04 5.16L12.3 5.15L12.56 5.14L12.82 5.14L13.08 5.14L13.34 5.15L13.6 5.16L13.84 5.18L14.09 5.2L14.32 5.22L14.55 5.26L14.76 5.29L14.97 5.33L15.16 5.37L15.34 5.42L15.5 5.47L15.65 5.52L15.72 5.47L15.81 5.4L15.91 5.34L16.02 5.27L16.14 5.2L16.27 5.12L16.41 5.04L16.55 4.97L16.7 4.89L16.85 4.82L17.01 4.74L17.17 4.67L17.33 4.61L17.49 4.54L17.66 4.48L17.82 4.43L17.97 4.39L18.13 4.35L18.27 4.32L18.42 4.3L18.55 4.29L18.68 4.29L18.8 4.3L18.91 4.32Z" id="b24Yr4d4V"></path></defs><g><g><g><use xlink:href="#b5ZpdkI2X" opacity="1" fill="#e9e9e9" fill-opacity="0"></use><g><use xlink:href="#b5ZpdkI2X" opacity="1" fill-opacity="0" stroke="#e9e9e9" stroke-width="2" stroke-opacity="1"></use></g></g><g><use xlink:href="#b24Yr4d4V" opacity="1" fill="#e9e9e9" fill-opacity="1"></use><g><use xlink:href="#b24Yr4d4V" opacity="1" fill-opacity="0" stroke="#000000" stroke-width="1" stroke-opacity="0"></use></g></g></g></g></svg>