<?xml version="1.0" encoding="UTF-8" standalone="no"?>
<!DOCTYPE svg PUBLIC "-//W3C//DTD SVG 1.1//EN" "http://www.w3.org/Graphics/SVG/1.1/DTD/svg11.dtd">
<svg version="1.1" xmlns="http://www.w3.org/2000/svg" xmlns:xlink="http://www.w3.org/1999/xlink" preserveAspectRatio="xMidYMid meet" viewBox="0 0 30 30" width="30" height="30"><defs><path d="M27.32 1.12C28.28 1.12 29.06 1.91 29.06 2.87C29.06 8.07 29.06 21.93 29.06 27.13C29.06 28.09 28.28 28.88 27.32 28.88C22.12 28.88 8.26 28.88 3.06 28.88C2.1 28.88 1.31 28.09 1.31 27.13C1.31 21.93 1.31 8.07 1.31 2.87C1.31 1.91 2.1 1.12 3.06 1.12C8.26 1.12 22.12 1.12 27.32 1.12Z" id="e2iiCODYa7"></path><path d="M21.34 15C21.34 18.39 18.58 21.15 15.19 21.15C11.8 21.15 9.04 18.39 9.04 15C9.04 11.61 11.8 8.85 15.19 8.85C18.58 8.85 21.34 11.61 21.34 15Z" id="aqWWirLh4"></path><path d="M25.76 5.48C25.76 6.33 25.07 7.02 24.22 7.02C23.37 7.02 22.69 6.33 22.69 5.48C22.69 4.63 23.37 3.94 24.22 3.94C25.07 3.94 25.76 4.63 25.76 5.48Z" id="b1EqTjmpHX"></path></defs><g><g><g><use xlink:href="#e2iiCODYa7" opacity="1" fill="#7e870f" fill-opacity="0"></use><g><use xlink:href="#e2iiCODYa7" opacity="1" fill-opacity="0" stroke="#e9e9e9" stroke-width="2" stroke-opacity="1"></use></g></g><g><use xlink:href="#aqWWirLh4" opacity="1" fill="#4cb74b" fill-opacity="0"></use><g><use xlink:href="#aqWWirLh4" opacity="1" fill-opacity="0" stroke="#e9e9e9" stroke-width="3" stroke-opacity="1"></use></g></g><g><use xlink:href="#b1EqTjmpHX" opacity="1" fill="#e9e9e9" fill-opacity="1"></use></g></g></g></svg>