<?xml version="1.0" encoding="UTF-8" standalone="no"?>
<!DOCTYPE svg PUBLIC "-//W3C//DTD SVG 1.1//EN" "http://www.w3.org/Graphics/SVG/1.1/DTD/svg11.dtd">
<svg version="1.1" xmlns="http://www.w3.org/2000/svg" xmlns:xlink="http://www.w3.org/1999/xlink" preserveAspectRatio="xMidYMid meet" viewBox="0 0 30 30" width="30" height="30"><defs><path d="M27.32 1.12C28.28 1.12 29.06 1.91 29.06 2.87C29.06 8.07 29.06 21.93 29.06 27.13C29.06 28.09 28.28 28.88 27.32 28.88C22.12 28.88 8.26 28.88 3.06 28.88C2.1 28.88 1.31 28.09 1.31 27.13C1.31 21.93 1.31 8.07 1.31 2.87C1.31 1.91 2.1 1.12 3.06 1.12C8.26 1.12 22.12 1.12 27.32 1.12Z" id="a2OFngEKLD"></path><path d="M6.91 12.67C6.74 12.67 6.61 12.8 6.61 12.96C6.61 14.16 6.61 23.7 6.61 24.9C6.61 25.06 6.74 25.19 6.91 25.19C7.28 25.19 10.25 25.19 10.62 25.19C10.79 25.19 10.92 25.06 10.92 24.9C10.92 23.7 10.92 14.16 10.92 12.96C10.92 12.8 10.79 12.67 10.62 12.67C9.88 12.67 7.28 12.67 6.91 12.67Z" id="i2pDsYqRlD"></path><path d="M6.32 9.18C6.32 10.53 7.42 11.63 8.77 11.63C10.12 11.63 11.22 10.53 11.22 9.18C11.22 7.83 10.12 6.73 8.77 6.73C7.42 6.73 6.32 7.83 6.32 9.18Z" id="cFAS8Sa82"></path><path d="M16.81 13.74C16.81 13.66 16.81 13.04 16.81 12.96C16.81 12.8 16.67 12.67 16.51 12.67C16.15 12.67 13.31 12.67 12.95 12.67C12.79 12.67 12.65 12.8 12.65 12.96C12.65 14.16 12.65 23.7 12.65 24.9C12.65 25.06 12.79 25.19 12.95 25.19C13.32 25.19 16.29 25.19 16.66 25.19C16.82 25.19 16.96 25.06 16.96 24.9C16.96 24.31 16.96 19.58 16.96 18.99C16.96 17 17.5 16.23 18.88 16.23C20.39 16.23 20.51 17.47 20.51 19.09C20.51 19.67 20.51 24.32 20.51 24.9C20.51 25.06 20.65 25.19 20.81 25.19C21.18 25.19 24.15 25.19 24.52 25.19C24.68 25.19 24.82 25.06 24.82 24.9C24.82 24.24 24.82 19.01 24.82 18.35C24.82 15.39 24.25 12.37 20.07 12.37C18.58 12.37 17.48 13.01 16.81 13.74Z" id="c1DVrBL7R3"></path></defs><g><g><g><use xlink:href="#a2OFngEKLD" opacity="1" fill="#7e870f" fill-opacity="0"></use><g><use xlink:href="#a2OFngEKLD" opacity="1" fill-opacity="0" stroke="#e9e9e9" stroke-width="2" stroke-opacity="1"></use></g></g><g><use xlink:href="#i2pDsYqRlD" opacity="1" fill="#e9e9e9" fill-opacity="1"></use><g><use xlink:href="#i2pDsYqRlD" opacity="1" fill-opacity="0" stroke="#e9e9e9" stroke-width="1" stroke-opacity="0"></use></g></g><g><use xlink:href="#cFAS8Sa82" opacity="1" fill="#e9e9e9" fill-opacity="1"></use><g><use xlink:href="#cFAS8Sa82" opacity="1" fill-opacity="0" stroke="#e9e9e9" stroke-width="1" stroke-opacity="0"></use></g></g><g><use xlink:href="#c1DVrBL7R3" opacity="1" fill="#e9e9e9" fill-opacity="1"></use><g><use xlink:href="#c1DVrBL7R3" opacity="1" fill-opacity="0" stroke="#e9e9e9" stroke-width="1" stroke-opacity="0"></use></g></g></g></g></svg>